<svg xmlns="http://www.w3.org/2000/svg" viewBox="0 0 512 512">
  <defs><linearGradient id="g" x1="0" y1="0" x2="1" y2="1"><stop stop-color="#ef9cbd"/><stop offset="1" stop-color="#b66696"/></linearGradient></defs>
  <rect width="512" height="512" rx="116" fill="url(#g)"/>
  <path d="M94 167c0-25 20-45 45-45h234c25 0 45 20 45 45v178c0 25-20 45-45 45H139c-25 0-45-20-45-45V167Z" fill="#fff7f1"/>
  <path d="m111 156 145 119 145-119" fill="none" stroke="#d8719f" stroke-linecap="round" stroke-linejoin="round" stroke-width="24"/>
  <path d="M256 344c-10-12-49-35-49-70 0-35 43-47 49-15 6-32 49-20 49 15 0 35-39 58-49 70Z" fill="#d95f91"/>
</svg>

